<?xml version="1.0" encoding="utf-8"?>
<svg viewBox="0 0 888 483.61099" xmlns="http://www.w3.org/2000/svg">
  <g transform="matrix(1, 0, 0, 1, 130.00000000000003, 1.4210854715202004e-14)">
    <path d="m406,438.53481c5,24,33.5-5.5,33.5-5.5l34-4s21.5.5,35.5,11.5,23.5-3.5,23.5-3.5c15.77283,5.2576,35.09692,5.23627,51.83264,3.55252,24.11597-2.42627,43.44604-21.04041,46.76044-45.05038,18.69678-135.44147-84.09314-202.00211-84.09314-202.00211l-30-81s9.5-23.5,12.5-44.5-19-41-46-61c-11.8125-8.75-25.34766-8.12109-36.83716-4.64502-12.88892,3.89946-24.13214,11.9183-32.4397,22.51616-6.88251,8.77995-18.68735,21.21468-31.66315,23.36885-4.48999.73999-8.91998,2.52002-13.06,5.76001-4.28003,3.34998-6.16998,8.94-6.22998,15.89001-.32001,30.35999,24.75,66.90998,46.72998,72.60999,27,7,12.5,73.5,12.5,73.5-44,62-13,131-13,131l-8,56s-.5,11.5,4.5,35.5l.00006-.00003Z" fill="#3f3d56"/>
    <path d="m553,309.53481l-11,137s15,38-36,36-21-80-21-80l16-102" fill="#3f3d56"/>
    <path d="m509.79492,483.61099c-1.24707,0-2.52344-.02539-3.83398-.07715-11.29004-.44238-19.60352-4.60059-24.71094-12.3584-14.60254-22.18164,1.63867-65.90625,2.77832-68.89941l15.9834-101.89648c.08594-.5459.59375-.91309,1.14355-.83301.54492.08594.91797.59766.83301,1.14355l-16,102c-.01172.06934-.0293.1377-.05469.2041-.1748.45215-17.25195,45.55566-3.01172,67.18359,4.73242,7.18652,12.50977,11.04199,23.11719,11.45801,16.65234.64941,27.85254-2.90332,33.29785-10.56836,7.12402-10.02832,1.78711-23.92676,1.73242-24.06641-.05566-.1416-.07812-.29492-.06641-.44629l11-137c.04395-.5498.5166-.95117,1.07715-.91699.55078.04492.96094.52637.91699,1.07715l-10.98242,136.77539c.72656,1.96094,5.28223,15.4043-2.03906,25.72363-5.41699,7.63574-15.89844,11.49707-31.18066,11.49707Z" fill="#2f2e41"/>
    <path d="m462,337.53481s3,127-60,124-6-43-6-43l5.5-15.5" fill="#3f3d56"/>
    <path d="m404.16211,462.58657c-.73145,0-1.4668-.01758-2.20996-.05273-17.98828-.85645-28.15186-4.88672-30.20801-11.97852-3.7041-12.7793,20.43945-30.52148,23.41895-32.65332l5.39453-15.20117c.18457-.52148.75586-.79297,1.27637-.6084s.79297.75586.6084,1.27637l-5.5,15.5c-.06934.19629-.19824.36523-.36816.48438-.26367.18555-26.37744,18.68457-22.90869,30.64551,1.79248,6.18066,11.34131,9.72559,28.38232,10.53711,11.34863.5459,21.29688-3.27051,29.55078-11.3291,30.95215-30.21582,29.4209-110.83789,29.40137-111.64844-.0127-.55176.42383-1.00977.97656-1.02344.52246.00098,1.00977.4248,1.02344.97656.0791,3.3457,1.57227,82.29785-30.00293,113.125-8.12793,7.93555-17.82031,11.9502-28.83496,11.9502Z" fill="#2f2e41"/>
    <path d="m363.27002,69.92484c7.17999.85999,18.41998.81995,27.72998-5.39001,9.96997-6.65002-.38-12.85004-8.44-16.26001-4.48999.73999-8.91998,2.52002-13.06,5.76001-4.28003,3.34998-6.16998,8.94-6.22998,15.89001Z" fill="#2f2e41"/>
    <path d="m479.2984,51.94388s-17.44968-44.81639,7.54245-45.4435,44.73257,38.20994,44.73257,38.20994c0,0,62.72797,114.34248-23.21378,108.17637-85.94171-6.16615-44.87375-51.81067-44.87375-51.81067,0,0,19.60165-24.09928,15.81253-49.13211h-.00003v-.00002h0s0-.00002,0-.00002Z" fill="#2f2e41"/>
    <path d="m575.03857,386.85064c11.06787,4.92365,22.63171,9.948,34.73578,9.46738s24.84155-8.27557,26.72772-20.24146c.97363-6.17697-.95746-12.80396,1.40759-18.59268,3.18213-7.78867,13.44672-10.79233,21.42578-8.12323s13.84076,9.55188,18.04358,16.84058c7.86328,13.63672,11.0141,31.53461,2.58307,44.82779-7.30878,11.52368-21.17084,16.73105-34.06519,21.19748-17.17535,5.94928-36.35114,11.854-52.99396,4.54617-16.7381-7.34964-25.85565-28.58435-19.65753-45.7821" fill="#3f3d56"/>
    <path d="m538.1142,170.92143s22,11,11,23-79,46-104,41-31-20-31-24,1.88583-52.38661,9.88583-50.38661,58.11417,47.38661,114.11417,10.38661Z" fill="#6c63ff"/>
  </g>
  <g transform="matrix(1, 0, 0, 1, 52.00000000000001, 1.4210854715202004e-14)">
    <path d="M 258.91 219.248 L 117.42 223.268 C 117.42 223.268 128.07 286.978 93.9 304.658 C 70.61 316.718 49.94 373.048 55.82 411.378 C 55.9 411.888 55.98 412.398 56.07 412.898 C 59.05 430.058 67.57 443.348 83.86 446.958 C 136.52 458.618 174.1 449.578 174.1 449.578 C 174.1 449.578 182.8 449.468 195.69 447.048 C 196.15 446.968 196.61 446.878 197.07 446.778 C 233.56 439.628 301.01 414.168 303.93 323.768 C 307.95 199.568 258.91 219.268 258.91 219.268 L 258.91 219.248 Z" fill="#3f3d56" style="transform-box: fill-box; transform-origin: 50% 50%;" transform="matrix(-1, 0, 0, -1, -0.000022, -0.000041)"/>
    <path d="M 302.842 278.626 C 302.602 272.146 301.132 265.706 298.452 259.586 C 292.892 246.896 282.752 237.206 269.912 232.296 C 231.452 217.576 186.572 232.176 163.872 248.006 C 163.782 247.506 161.982 238.016 161.902 237.506 C 171.952 230.626 221.142 223.996 230.472 223.996 C 244.642 223.996 258.282 226.346 270.412 230.996 C 283.602 236.046 294.012 246.006 299.722 259.036 C 302.452 265.256 303.952 271.786 304.222 278.366 C 303.762 278.466 303.302 278.556 302.842 278.636 C 302.842 278.636 302.842 278.636 302.842 278.636 L 302.842 278.626 Z" fill="#6c63ff" style="transform-box: fill-box; transform-origin: 50% 50%;" transform="matrix(-1, 0, 0, -1, 0.000032, 0.000004)"/>
    <path d="M 321.216 155.571 L 298.666 212.281 C 298.666 212.281 325.736 258.681 304.466 263.831 C 283.196 268.991 261.286 241.281 261.286 241.281 C 261.286 241.281 220.686 255.461 205.226 243.861 C 205.226 243.861 179.446 279.951 163.986 272.861 C 148.516 265.771 169.486 214.681 169.486 214.681 C 169.486 214.681 137.566 167.821 162.056 140.761 C 186.546 113.691 278.696 91.781 321.226 155.581 L 321.216 155.571 Z" fill="#3f3d56" style="transform-box: fill-box; transform-origin: 50% 50%;" transform="matrix(-1, 0, 0, -1, -0.000022, -0.000024)"/>
    <path d="M 30.791 428.171 C 38.471 424.751 46.491 421.271 54.891 421.601 C 63.291 421.931 72.121 427.341 73.431 435.641 C 74.111 439.931 72.771 444.521 74.411 448.541 C 76.621 453.941 83.741 456.031 89.271 454.181 C 94.811 452.331 98.871 447.551 101.791 442.501 C 107.251 433.041 109.431 420.621 103.581 411.401 C 98.511 403.411 88.891 399.791 79.951 396.691 C 68.031 392.561 54.731 388.471 43.181 393.541 C 31.571 398.641 25.241 413.371 29.541 425.301" fill="#3f3d56" style="transform-box: fill-box; transform-origin: 50% 50%;" transform="matrix(-1, 0, 0, -1, -0.000002, 0.000012)"/>
    <path d="M 254.372 222.015 C 254.372 222.015 240.492 227.565 231.482 220.625 L 241.892 204.665 C 241.892 204.665 254.382 222.005 254.382 222.005 L 254.372 222.015 Z" fill="#6c63ff" style="transform-box: fill-box; transform-origin: 50% 50%;" transform="matrix(-1, 0, 0, -1, -0.000034, -0.000012)"/>
    <path d="M 230.214 455.145 L 255.884 318.465 C 255.884 318.465 217.034 278.915 266.984 279.615 C 316.934 280.305 302.364 305.975 302.364 305.975 L 286.404 424.615" fill="#3f3d56" style="transform-box: fill-box; transform-origin: 50% 50%;" transform="matrix(-1, 0, 0, -1, 0.00002, 0.00001)"/>
    <path d="M 257.367 313.436 C 243.837 313.436 235.657 316.536 233.037 322.666 C 228.267 333.826 243.797 350.836 246.457 353.636 L 229.197 455.816 L 231.167 456.146 L 248.597 352.966 L 248.237 352.606 C 248.057 352.426 230.297 334.156 234.877 323.456 C 237.227 317.956 245.197 315.266 258.617 315.456 C 277.267 315.716 289.287 319.626 293.387 326.756 C 297.077 333.176 293.177 340.256 293.137 340.326 L 293.047 340.496 L 293.017 340.686 L 281.917 423.246 L 283.897 423.516 L 294.977 341.136 C 295.637 339.886 299.087 332.676 295.137 325.776 C 290.607 317.876 278.327 313.726 258.647 313.456 C 258.217 313.456 257.797 313.456 257.377 313.456 L 257.367 313.436 Z" fill="#2f2e41" style="transform-box: fill-box; transform-origin: 50% 50%;" transform="matrix(-1, 0, 0, -1, 0.000013, -0.000013)"/>
    <path d="M 165.004 455.145 L 190.674 318.465 C 190.674 318.465 151.824 278.915 201.774 279.615 C 251.724 280.305 237.154 305.975 237.154 305.975 L 221.194 424.615" fill="#3f3d56" style="transform-box: fill-box; transform-origin: 50% 50%;" transform="matrix(-1, 0, 0, -1, 0.000027, 0.00001)"/>
    <path d="M 189.232 309.986 C 175.702 309.986 167.522 313.086 164.902 319.216 C 160.132 330.356 175.632 347.346 178.312 350.176 L 168.002 405.176 L 169.972 405.546 L 180.472 349.526 L 180.102 349.156 C 179.922 348.976 162.162 330.706 166.742 320.006 C 169.092 314.506 177.072 311.806 190.482 312.006 C 209.142 312.266 221.172 316.176 225.262 323.326 C 228.952 329.766 225.042 336.806 225.002 336.876 L 224.902 337.046 L 208.922 455.876 L 210.902 456.146 L 226.832 337.686 C 227.492 336.436 230.942 329.226 226.992 322.326 C 222.462 314.426 210.182 310.276 190.502 310.006 C 190.072 310.006 189.652 310.006 189.232 310.006 L 189.232 309.986 Z" fill="#2f2e41" style="transform-box: fill-box; transform-origin: 50% 50%;" transform="matrix(-1, 0, 0, -1, 0.000001, 0.000042)"/>
  </g>
  <path d="M 1.232 448.136 L 888.232 448.136 L 888.232 450.136 L 1.232 450.136 C 0.682 450.136 0.232 449.686 0.232 449.136 C 0.232 448.586 0.682 448.136 1.232 448.136 Z" fill="#3f3d56" style="transform-origin: 444.232px 449.136px;" transform="matrix(-1, 0, 0, -1, 0, 0)"/>
</svg>